# ProBuilder 5.0.6
# https://unity3d.com/unity/features/worldbuilding/probuilder
# 2023-03-06 9:12:04 AM

mtllib ./mesh_wire.mtl
o mesh_wire

g mesh_wire
v 7.629395E-06 1.788139E-07 -0.1000023
v 0.1000099 1.788139E-07 -0.1000023
v 0.1000099 1.788139E-07 -3.814697E-06
v 7.629395E-06 1.788139E-07 -3.814697E-06
v 0.4803772 -0.3901805 -3.814697E-06
v 0.4803772 -0.3901805 -0.1000023
v 0.5784569 -0.3706715 -3.814697E-06
v 0.5784569 -0.3706715 -0.1000023
v 1.903023 -0.7653667 -3.814697E-06
v 1.903023 -0.7653667 -0.1000023
v 1.995411 -0.7270984 -3.814697E-06
v 1.995411 -0.7270984 -0.1000023
v 4.213272 -1.11114 -3.814697E-06
v 4.213272 -1.11114 -0.1000023
v 4.296417 -1.055583 -3.814697E-06
v 4.296417 -1.055583 -0.1000023
v 7.322338 -1.414213 -3.814697E-06
v 7.322338 -1.414213 -0.1000023
v 7.393051 -1.343503 -3.814697E-06
v 7.393051 -1.343503 -0.1000023
v 11.11075 -1.662939 -3.814697E-06
v 11.11075 -1.662939 -0.1000023
v 11.16631 -1.579792 -3.814697E-06
v 11.16631 -1.579792 -0.1000023
v 15.43292 -1.847759 -3.814697E-06
v 15.43292 -1.847759 -0.1000023
v 15.47119 -1.755371 -3.814697E-06
v 15.47119 -1.755371 -0.1000023
v 20.12275 -1.961571 -3.814697E-06
v 20.12275 -1.961571 -0.1000023
v 20.14226 -1.863492 -3.814697E-06
v 20.14226 -1.863492 -0.1000023
v 25.00001 -2 -3.814697E-06
v 25.00001 -2 -0.1000023
v 25.00001 -1.9 -3.814697E-06
v 25.00001 -1.9 -0.1000023
v 29.87727 -1.961571 -3.814697E-06
v 29.87727 -1.961571 -0.1000023
v 29.85776 -1.863492 -3.814697E-06
v 29.85776 -1.863492 -0.1000023
v 34.56709 -1.847759 -3.814697E-06
v 34.56709 -1.847759 -0.1000023
v 34.52882 -1.755371 -3.814697E-06
v 34.52882 -1.755371 -0.1000023
v 38.88926 -1.662939 -3.814697E-06
v 38.88926 -1.662939 -0.1000023
v 38.83371 -1.579792 -3.814697E-06
v 38.83371 -1.579792 -0.1000023
v 42.67768 -1.414213 -3.814697E-06
v 42.67768 -1.414213 -0.1000023
v 42.60697 -1.343503 -3.814697E-06
v 42.60697 -1.343503 -0.1000023
v 45.78675 -1.11114 -3.814697E-06
v 45.78675 -1.11114 -0.1000023
v 45.70361 -1.055583 -3.814697E-06
v 45.70361 -1.055583 -0.1000023
v 48.097 -0.7653668 -3.814697E-06
v 48.097 -0.7653668 -0.1000023
v 48.00461 -0.7270984 -3.814697E-06
v 48.00461 -0.7270984 -0.1000023
v 49.51965 -0.3901804 -3.814697E-06
v 49.51965 -0.3901804 -0.1000023
v 49.42156 -0.3706714 -3.814697E-06
v 49.42156 -0.3706714 -0.1000023
v 50.00001 2.980232E-07 -3.814697E-06
v 50.00001 2.980232E-07 -0.1000023
v 49.90001 2.980232E-07 -3.814697E-06
v 49.90001 2.980232E-07 -0.1000023

vt -7.629395E-06 -0.1000023
vt -0.1000099 -0.1000023
vt -0.1000099 -3.814697E-06
vt -7.629395E-06 -3.814697E-06
vt 0.6188724 -3.814697E-06
vt 0.6188724 -0.1000023
vt -0.6842939 -3.814697E-06
vt -0.07905922 -3.814697E-06
vt -0.07905922 -0.1000023
vt -0.6842939 -0.1000023
vt 0.5639939 -3.814697E-06
vt 2.035281 -3.814697E-06
vt 2.035281 -0.1000023
vt 0.5639939 -0.1000023
vt -2.1125 -3.814697E-06
vt -0.6514046 -3.814697E-06
vt -0.6514046 -0.1000023
vt -2.1125 -0.1000023
vt 1.99535 -3.814697E-06
vt 4.331332 -3.814697E-06
vt 4.331332 -0.1000023
vt 1.99535 -0.1000023
vt -4.402475 -3.814697E-06
vt -2.07814 -3.814697E-06
vt -2.07814 -0.1000023
vt -4.402475 -0.1000023
vt 4.301199 -3.814697E-06
vt 7.425002 -3.814697E-06
vt 7.425002 -0.1000023
vt 4.301199 -0.1000023
vt -7.485681 -3.814697E-06
vt -4.37569 -3.814697E-06
vt -4.37569 -0.1000023
vt -7.485681 -0.1000023
vt 7.399258 -3.814697E-06
vt 11.19583 -3.814697E-06
vt 11.19583 -0.1000023
vt 7.399258 -0.1000023
vt -11.24322 -3.814697E-06
vt -7.462566 -3.814697E-06
vt -7.462566 -0.1000023
vt -11.24322 -0.1000023
vt 11.17165 -3.814697E-06
vt 15.49777 -3.814697E-06
vt 15.49777 -0.1000023
vt 11.17165 -0.1000023
vt -15.52987 -3.814697E-06
vt -11.22141 -3.814697E-06
vt -11.22141 -0.1000023
vt -15.52987 -0.1000023
vt 15.47321 -3.814697E-06
vt 20.16442 -3.814697E-06
vt 20.16442 -0.1000023
vt 15.47321 -0.1000023
vt -20.17999 -3.814697E-06
vt -15.50767 -3.814697E-06
vt -15.50767 -0.1000023
vt -20.17999 -0.1000023
vt 20.13758 -3.814697E-06
vt 25.01499 -3.814697E-06
vt 25.01499 -0.1000023
vt 20.13758 -0.1000023
vt -25.01359 -3.814697E-06
vt -20.1557 -3.814697E-06
vt -20.1557 -0.1000023
vt -25.01359 -0.1000023
vt 24.98348 -3.814697E-06
vt 29.86089 -3.814697E-06
vt 29.86089 -0.1000023
vt 24.98348 -0.1000023
vt -29.84291 -3.814697E-06
vt -24.98503 -3.814697E-06
vt -24.98503 -0.1000023
vt -29.84291 -0.1000023
vt 29.82088 -3.814697E-06
vt 34.51209 -3.814697E-06
vt 34.51209 -0.1000023
vt 29.82088 -0.1000023
vt -34.47896 -3.814697E-06
vt -29.80664 -3.814697E-06
vt -29.80664 -0.1000023
vt -34.47896 -0.1000023
vt 34.45659 -3.814697E-06
vt 38.78271 -3.814697E-06
vt 38.78271 -0.1000023
vt 34.45659 -0.1000023
vt -38.73707 -3.814697E-06
vt -34.4286 -3.814697E-06
vt -34.4286 -0.1000023
vt -38.73707 -0.1000023
vt 38.69677 -3.814697E-06
vt 42.49335 -3.814697E-06
vt 42.49335 -0.1000023
vt 38.69677 -0.1000023
vt -42.43971 -3.814697E-06
vt -38.65905 -3.814697E-06
vt -38.65905 -0.1000023
vt -42.43971 -0.1000023
vt 42.33914 -3.814697E-06
vt 45.46294 -3.814697E-06
vt 45.46294 -0.1000023
vt 42.33914 -0.1000023
vt -45.4096 -3.814697E-06
vt -42.29961 -3.814697E-06
vt -42.29961 -0.1000023
vt -45.4096 -0.1000023
vt 45.1179 -3.814697E-06
vt 47.45389 -3.814697E-06
vt 47.45389 -0.1000023
vt 45.1179 -0.1000023
vt -47.42005 -3.814697E-06
vt -45.09571 -3.814697E-06
vt -45.09571 -0.1000023
vt -47.42005 -0.1000023
vt 46.31172 -3.814697E-06
vt 47.783 -3.814697E-06
vt 47.783 -0.1000023
vt 46.31172 -0.1000023
vt -47.83807 -3.814697E-06
vt -46.37697 -3.814697E-06
vt -46.37697 -0.1000023
vt -47.83807 -0.1000023
vt 38.19133 -3.814697E-06
vt 38.81019 -3.814697E-06
vt 38.81019 -0.1000023
vt 38.19133 -0.1000023
vt -39.4467 -3.814697E-06
vt -38.84146 -3.814697E-06
vt -38.84146 -0.1000023
vt -39.4467 -0.1000023
vt -49.90001 -0.1000023
vt -50.00001 -0.1000023
vt -50.00001 -3.814697E-06
vt -49.90001 -3.814697E-06
vt 0.1000099 1.788139E-07
vt 0.5784569 -0.3706715
vt 0.4803772 -0.3901805
vt -0.5784569 -0.3706715
vt -0.4803772 -0.3901805
vt 1.995411 -0.7270984
vt 1.903023 -0.7653667
vt -1.995411 -0.7270984
vt -1.903023 -0.7653667
vt 4.296417 -1.055583
vt 4.213272 -1.11114
vt -4.296417 -1.055583
vt -4.213272 -1.11114
vt 7.393051 -1.343503
vt 7.322338 -1.414213
vt -7.393051 -1.343503
vt -7.322338 -1.414213
vt 11.16631 -1.579792
vt 11.11075 -1.662939
vt -11.16631 -1.579792
vt -11.11075 -1.662939
vt 15.47119 -1.755371
vt 15.43292 -1.847759
vt -15.47119 -1.755371
vt -15.43292 -1.847759
vt 20.14226 -1.863492
vt 20.12275 -1.961571
vt -20.14226 -1.863492
vt -20.12275 -1.961571
vt 25.00001 -1.9
vt 25.00001 -2
vt -25.00001 -1.9
vt -25.00001 -2
vt 29.85776 -1.863492
vt 29.87727 -1.961571
vt -29.85776 -1.863492
vt -29.87727 -1.961571
vt 34.52882 -1.755371
vt 34.56709 -1.847759
vt -34.52882 -1.755371
vt -34.56709 -1.847759
vt 38.83371 -1.579792
vt 38.88926 -1.662939
vt -38.83371 -1.579792
vt -38.88926 -1.662939
vt 42.60697 -1.343503
vt 42.67768 -1.414213
vt -42.60697 -1.343503
vt -42.67768 -1.414213
vt 45.70361 -1.055583
vt 45.78675 -1.11114
vt -45.70361 -1.055583
vt -45.78675 -1.11114
vt 48.00461 -0.7270984
vt 48.097 -0.7653668
vt -48.00461 -0.7270984
vt -48.097 -0.7653668
vt 49.42156 -0.3706714
vt 49.51965 -0.3901804
vt -49.42156 -0.3706714
vt -49.51965 -0.3901804
vt 49.90001 2.980232E-07
vt 50.00001 2.980232E-07

vn 0 1 0
vn -0.6304762 -0.7762086 0
vn -0.4528951 -0.8915638 0
vn 0.4374756 0.8992303 0
vn 0.6124429 0.7905149 0
vn -0.2018143 -0.9794238 0
vn 0.1928986 0.9812187 0
vn -0.1225611 -0.992461 0
vn 0.1169868 0.9931334 0
vn -0.08127706 -0.9966915 0
vn 0.07754811 0.9969886 0
vn -0.05412105 -0.9985344 0
vn 0.05162894 0.9986663 0
vn -0.03349265 -0.999439 0
vn 0.03194765 0.9994895 0
vn -0.01607038 -0.9998709 0
vn 0.01532844 0.9998825 0
vn 3.25973E-09 -1 0
vn 0.01607036 -0.9998709 0
vn -0.01532845 0.9998825 0
vn 0.03349267 -0.999439 0
vn -0.03194763 0.9994895 0
vn 0.05412105 -0.9985344 0
vn -0.05162887 0.9986663 0
vn 0.08127697 -0.9966915 0
vn -0.07754807 0.9969886 0
vn 0.122561 -0.992461 0
vn -0.1169869 0.9931334 0
vn 0.2018143 -0.9794238 0
vn -0.1928987 0.9812187 0
vn 0.4528987 -0.891562 0
vn -0.2439451 0.9697891 0
vn 0.6304823 -0.7762036 0
vn -0.612443 0.7905148 0
vn 0 0 1
vn 0 0 -1

usemtl Black_Wire
f 3/3/1 2/2/1 1/1/1
f 4/4/1 3/3/1 1/1/1
f 6/6/3 5/5/3 4/4/2
f 1/1/2 6/6/3 4/4/2
f 2/9/5 3/8/5 7/7/4
f 8/10/4 2/9/5 7/7/4
f 10/13/6 9/12/6 5/11/3
f 6/14/3 10/13/6 5/11/3
f 8/17/4 7/16/4 11/15/7
f 12/18/7 8/17/4 11/15/7
f 14/21/8 13/20/8 9/19/6
f 10/22/6 14/21/8 9/19/6
f 12/25/7 11/24/7 15/23/9
f 16/26/9 12/25/7 15/23/9
f 18/29/10 17/28/10 13/27/8
f 14/30/8 18/29/10 13/27/8
f 16/33/9 15/32/9 19/31/11
f 20/34/11 16/33/9 19/31/11
f 22/37/12 21/36/12 17/35/10
f 18/38/10 22/37/12 17/35/10
f 20/41/11 19/40/11 23/39/13
f 24/42/13 20/41/11 23/39/13
f 26/45/14 25/44/14 21/43/12
f 22/46/12 26/45/14 21/43/12
f 24/49/13 23/48/13 27/47/15
f 28/50/15 24/49/13 27/47/15
f 30/53/16 29/52/16 25/51/14
f 26/54/14 30/53/16 25/51/14
f 28/57/15 27/56/15 31/55/17
f 32/58/17 28/57/15 31/55/17
f 34/61/18 33/60/18 29/59/16
f 30/62/16 34/61/18 29/59/16
f 32/65/17 31/64/17 35/63/1
f 36/66/1 32/65/17 35/63/1
f 38/69/19 37/68/19 33/67/18
f 34/70/18 38/69/19 33/67/18
f 36/73/1 35/72/1 39/71/20
f 40/74/20 36/73/1 39/71/20
f 42/77/21 41/76/21 37/75/19
f 38/78/19 42/77/21 37/75/19
f 40/81/20 39/80/20 43/79/22
f 44/82/22 40/81/20 43/79/22
f 46/85/23 45/84/23 41/83/21
f 42/86/21 46/85/23 41/83/21
f 44/89/22 43/88/22 47/87/24
f 48/90/24 44/89/22 47/87/24
f 50/93/25 49/92/25 45/91/23
f 46/94/23 50/93/25 45/91/23
f 48/97/24 47/96/24 51/95/26
f 52/98/26 48/97/24 51/95/26
f 54/101/27 53/100/27 49/99/25
f 50/102/25 54/101/27 49/99/25
f 52/105/26 51/104/26 55/103/28
f 56/106/28 52/105/26 55/103/28
f 58/109/29 57/108/29 53/107/27
f 54/110/27 58/109/29 53/107/27
f 56/113/28 55/112/28 59/111/30
f 60/114/30 56/113/28 59/111/30
f 62/117/31 61/116/31 57/115/29
f 58/118/29 62/117/31 57/115/29
f 60/121/30 59/120/30 63/119/32
f 64/122/32 60/121/30 63/119/32
f 66/125/33 65/124/33 61/123/31
f 62/126/31 66/125/33 61/123/31
f 64/129/34 63/128/34 67/127/34
f 68/130/34 64/129/34 67/127/34
f 65/133/1 66/132/1 68/131/1
f 67/134/1 65/133/1 68/131/1
f 5/137/35 7/136/35 3/135/35
f 4/4/35 5/137/35 3/135/35
f 1/4/36 2/3/36 8/138/36
f 6/139/36 1/4/36 8/138/36
f 9/141/35 11/140/35 7/136/35
f 5/137/35 9/141/35 7/136/35
f 6/139/36 8/138/36 12/142/36
f 10/143/36 6/139/36 12/142/36
f 13/145/35 15/144/35 11/140/35
f 9/141/35 13/145/35 11/140/35
f 10/143/36 12/142/36 16/146/36
f 14/147/36 10/143/36 16/146/36
f 17/149/35 19/148/35 15/144/35
f 13/145/35 17/149/35 15/144/35
f 14/147/36 16/146/36 20/150/36
f 18/151/36 14/147/36 20/150/36
f 21/153/35 23/152/35 19/148/35
f 17/149/35 21/153/35 19/148/35
f 18/151/36 20/150/36 24/154/36
f 22/155/36 18/151/36 24/154/36
f 25/157/35 27/156/35 23/152/35
f 21/153/35 25/157/35 23/152/35
f 22/155/36 24/154/36 28/158/36
f 26/159/36 22/155/36 28/158/36
f 29/161/35 31/160/35 27/156/35
f 25/157/35 29/161/35 27/156/35
f 26/159/36 28/158/36 32/162/36
f 30/163/36 26/159/36 32/162/36
f 33/165/35 35/164/35 31/160/35
f 29/161/35 33/165/35 31/160/35
f 30/163/36 32/162/36 36/166/36
f 34/167/36 30/163/36 36/166/36
f 37/169/35 39/168/35 35/164/35
f 33/165/35 37/169/35 35/164/35
f 34/167/36 36/166/36 40/170/36
f 38/171/36 34/167/36 40/170/36
f 41/173/35 43/172/35 39/168/35
f 37/169/35 41/173/35 39/168/35
f 38/171/36 40/170/36 44/174/36
f 42/175/36 38/171/36 44/174/36
f 45/177/35 47/176/35 43/172/35
f 41/173/35 45/177/35 43/172/35
f 42/175/36 44/174/36 48/178/36
f 46/179/36 42/175/36 48/178/36
f 49/181/35 51/180/35 47/176/35
f 45/177/35 49/181/35 47/176/35
f 46/179/36 48/178/36 52/182/36
f 50/183/36 46/179/36 52/182/36
f 53/185/35 55/184/35 51/180/35
f 49/181/35 53/185/35 51/180/35
f 50/183/36 52/182/36 56/186/36
f 54/187/36 50/183/36 56/186/36
f 57/189/35 59/188/35 55/184/35
f 53/185/35 57/189/35 55/184/35
f 54/187/36 56/186/36 60/190/36
f 58/191/36 54/187/36 60/190/36
f 61/193/35 63/192/35 59/188/35
f 57/189/35 61/193/35 59/188/35
f 58/191/36 60/190/36 64/194/36
f 62/195/36 58/191/36 64/194/36
f 65/197/35 67/196/35 63/192/35
f 61/193/35 65/197/35 63/192/35
f 62/195/36 64/194/36 68/134/36
f 66/133/36 62/195/36 68/134/36

