# ProBuilder 5.0.6
# https://unity3d.com/unity/features/worldbuilding/probuilder
# 2023-03-06 9:11:34 AM

mtllib ./mesh_guard_rail.mtl
o mesh_guard_rail

g post (1)
v -0.02500001 -1 -1.85
v -0.02500001 1 -1.85
v -0.275 1 -1.85
v -0.275 -1 -1.85
v -0.02500001 1 -1.6
v -0.275 1 -1.6
v -0.02500001 -1 -1.6
v -0.275 -1 -1.6

vt 0 0
vt 0 1
vt 1 1
vt 1 0

vn 0 0 -0.25
vn 0 2 0
vn 0 0 0.25
vn 0 -2 0
vn -0.25 0 0
vn 0.25 0 0

usemtl Wood
f 3/3/1 2/2/1 1/1/1
f 4/4/1 3/3/1 1/1/1
f 6/3/2 5/2/2 2/1/2
f 3/4/2 6/3/2 2/1/2
f 8/3/3 7/2/3 5/1/3
f 6/4/3 8/3/3 5/1/3
f 4/3/4 1/2/4 7/1/4
f 8/4/4 4/3/4 7/1/4
f 6/3/5 3/2/5 4/1/5
f 8/4/5 6/3/5 4/1/5
f 2/3/6 5/2/6 7/1/6
f 1/4/6 2/3/6 7/1/6

g mesh_guard_rail
v 0.05206299 0.8762558 -4.749996
v -0.006317139 0.9577756 -4.749996
v -0.01802063 0.8886802 -4.749996
v 0.0696106 0.8068969 -4.749996
v 0.1677856 0.7946632 -4.749996
v 0.1682129 0.6911819 -4.749996
v 0.2252502 0.7370422 -4.749996
v 0.242691 0.6739509 -4.749996
v 0.1166534 0.5694931 -4.749996
v 0.02906799 0.6096961 -4.749996
v 0.02330017 0.5044029 -4.749996
v -0.05352783 0.4976127 -4.749996
v -0.01205444 0.451062 -4.749996
v 0.05331421 0.09177089 -4.749996
v -0.005996704 0.1014411 -4.749996
v 0 4.529953E-06 -4.749996
v 0.05319214 0.1630676 -4.749996
v 0.193512 0.1677978 -4.749996
v 0.1584473 0.2254722 -4.749996
v 0.2394562 0.2161949 -4.749996
v 0.216095 0.2798431 -4.749996
v 0.1464081 0.3424842 -4.749996
v 0.02937317 0.3457725 -4.749996
v 0.01750183 0.3985679 -4.749996
v -0.05352783 0.497612 0
v -0.01205444 0.4510612 0
v 0.02937317 0.345768 0
v 0.01750183 0.3985672 0
v 0.1464081 0.3424797 0
v 0.1584473 0.2254677 0
v 0.216095 0.2798424 0
v 0.2394562 0.2161942 0
v 0.193512 0.1677971 0
v 0.05319214 0.1630669 0
v 0.05331421 0.09177017 0
v -0.005996704 0.1014404 0
v 0 0 0
v 0.02330017 0.5044022 0
v 0.02906799 0.6096954 0
v 0.1166534 0.5694923 0
v 0.1682129 0.6911812 0
v 0.242691 0.6739502 0
v 0.2252502 0.7370377 0
v 0.1677856 0.7946625 0
v 0.0696106 0.8068962 0
v 0.05206299 0.8762512 0
v -0.01802063 0.8886795 0
v -0.006317139 0.9577751 0

vt 3 0.7712309
vt 3 0.869826
vt 3 0.8122387
vt 3 0.7009843
vt 3 0.648221
vt 3 0.5543506
vt 3 0.5716519
vt 3 0.5071251
vt 3 0.4660704
vt 3 0.5396598
vt 3 0.4467795
vt 3 0.4732547
vt 3 0.4134986
vt 3 0.06044996
vt 3 0.09413201
vt 3 5.781651E-06
vt 3 0.1250517
vt 3 0.06975144
vt 3 0.1368574
vt 3 0.1616047
vt 3 0.2479088
vt 3 0.3005815
vt 3 0.3534217
vt 0 0.4732524
vt 1.282367E-08 0.4134962
vt 2.56332E-08 0.3005757
vt 2.196255E-08 0.3534194
vt 6.182068E-08 0.247903
vt 6.554323E-08 0.1368516
vt 8.336804E-08 0.1616024
vt 7.398943E-08 0.0941297
vt 7.638532E-08 0.06974914
vt 3.299808E-08 0.1250494
vt 3.303582E-08 0.06044764
vt 1.655094E-08 0
vt 2.375541E-08 0.4467772
vt 2.553884E-08 0.5396575
vt 5.262047E-08 0.4660681
vt 6.856278E-08 0.5543483
vt 9.159162E-08 0.5071228
vt 8.619887E-08 0.5716461
vt 6.843068E-08 0.6482186
vt 3.807471E-08 0.700982
vt 3.264894E-08 0.7712251
vt 1.097892E-08 0.8122364
vt 1.459766E-08 0.8698239

vn 0 0 -1
vn 0 0 1
vn 0.8130311 0.5822203 5.552489E-07
vn -0.9859565 0.1670024 1.676485E-08
vn -0.6822922 -0.7310796 -1.100862E-07
vn 0.5762219 0.8172933 1.230682E-07
vn -0.7611451 -0.6485817 -9.766361E-08
vn 0.7080905 0.7061217 6.734107E-07
vn 0.9638462 0.2664593 4.012352E-08
vn 0.6381146 -0.7699414 -1.15938E-07
vn -0.5053412 0.8629196 1.299387E-07
vn 0.5719451 -0.8202919 -1.235198E-07
vn -0.8050283 0.5932364 8.932971E-08
vn 0.833533 -0.5524697 -8.319104E-08
vn -0.9982572 -0.0590125 -8.886119E-09
vn 0.8646731 -0.502335 -4.790643E-07
vn -0.7212268 0.6926991 1.043068E-07
vn 0.4767022 -0.8790648 -1.323698E-07
vn -0.5099682 0.8601933 8.203449E-07
vn 0.7252463 -0.6884895 -1.036729E-07
vn 0.9387642 0.3445605 5.188401E-08
vn 0.6684878 0.7437232 1.1199E-07
vn 0.6685103 0.7437029 7.092509E-07
vn -0.6818066 -0.7315325 -6.976443E-07
vn 0.3989732 0.9169626 8.744844E-07
vn 0.8713742 0.4906189 7.387754E-08
vn -0.8777084 -0.4791951 -7.215733E-08

usemtl Guard_Rail
f 11/7/7 10/6/7 9/5/7
f 11/7/7 9/5/7 12/8/7
f 13/9/7 12/8/7 9/5/7
f 12/8/7 13/9/7 14/10/7
f 14/10/7 13/9/7 15/11/7
f 14/10/7 15/11/7 16/12/7
f 17/13/7 14/10/7 16/12/7
f 17/13/7 18/14/7 14/10/7
f 19/15/7 18/14/7 17/13/7
f 19/15/7 20/16/7 18/14/7
f 21/17/7 20/16/7 19/15/7
f 24/20/7 23/19/7 22/18/7
f 23/19/7 25/21/7 22/18/7
f 26/22/7 22/18/7 25/21/7
f 26/22/7 25/21/7 27/23/7
f 26/22/7 27/23/7 28/19/7
f 27/23/7 29/24/7 28/19/7
f 27/23/7 30/25/7 29/24/7
f 31/26/7 30/25/7 27/23/7
f 30/25/7 31/26/7 32/27/7
f 21/17/7 32/27/7 31/26/7
f 20/16/7 21/17/7 31/26/7
f 35/30/8 34/29/8 33/28/8
f 35/30/8 36/31/8 34/29/8
f 36/31/8 35/30/8 37/32/8
f 38/33/8 37/32/8 35/30/8
f 39/34/8 37/32/8 38/33/8
f 40/35/8 39/34/8 38/33/8
f 40/35/8 38/33/8 41/36/8
f 38/33/8 42/37/8 41/36/8
f 42/37/8 43/38/8 41/36/8
f 43/38/8 42/37/8 44/35/8
f 43/38/8 44/35/8 45/39/8
f 46/40/8 33/28/8 34/29/8
f 47/41/8 33/28/8 46/40/8
f 48/42/8 47/41/8 46/40/8
f 49/43/8 47/41/8 48/42/8
f 50/44/8 49/43/8 48/42/8
f 50/44/8 51/45/8 49/43/8
f 51/45/8 52/46/8 49/43/8
f 49/43/8 52/46/8 53/47/8
f 54/48/8 53/47/8 52/46/8
f 53/47/8 54/48/8 55/49/8
f 54/48/8 56/50/8 55/49/8
f 9/5/9 56/50/9 54/48/9
f 9/5/9 10/6/9 56/50/9
f 10/6/10 55/49/10 56/50/10
f 10/6/10 11/7/10 55/49/10
f 11/7/11 53/47/11 55/49/11
f 11/7/11 12/8/11 53/47/11
f 13/9/12 54/48/12 52/46/12
f 13/9/12 9/5/12 54/48/12
f 12/8/13 49/43/13 53/47/13
f 12/8/13 14/10/13 49/43/13
f 15/11/14 52/46/14 51/45/14
f 15/11/14 13/9/14 52/46/14
f 16/12/15 51/45/15 50/44/15
f 16/12/15 15/11/15 51/45/15
f 17/13/16 50/44/16 48/42/16
f 17/13/16 16/12/16 50/44/16
f 14/10/17 47/41/17 49/43/17
f 14/10/17 18/14/17 47/41/17
f 19/15/18 48/42/18 46/40/18
f 19/15/18 17/13/18 48/42/18
f 18/14/19 33/28/19 47/41/19
f 18/14/19 20/16/19 33/28/19
f 21/17/20 46/40/20 34/29/20
f 21/17/20 19/15/20 46/40/20
f 23/19/21 45/39/21 44/35/21
f 23/19/21 24/20/21 45/39/21
f 24/20/22 43/38/22 45/39/22
f 24/20/22 22/18/22 43/38/22
f 25/21/23 44/35/23 42/37/23
f 25/21/23 23/19/23 44/35/23
f 22/18/24 41/36/24 43/38/24
f 22/18/24 26/22/24 41/36/24
f 27/23/25 42/37/25 38/33/25
f 27/23/25 25/21/25 42/37/25
f 26/22/26 40/35/26 41/36/26
f 26/22/26 28/19/26 40/35/26
f 28/19/27 39/34/27 40/35/27
f 28/19/27 29/24/27 39/34/27
f 29/24/28 37/32/28 39/34/28
f 29/24/28 30/25/29 37/32/28
f 31/26/30 38/33/30 35/30/30
f 31/26/30 27/23/30 38/33/30
f 30/25/31 36/31/31 37/32/31
f 30/25/31 32/27/31 36/31/31
f 32/27/32 34/29/32 36/31/32
f 32/27/32 21/17/32 34/29/32
f 20/16/33 35/30/33 33/28/33
f 20/16/33 31/26/33 35/30/33

g post
v -0.02500001 -1 -0.125
v -0.02500001 1 -0.125
v -0.275 1 -0.125
v -0.275 -1 -0.125
v -0.02500001 1 0.125
v -0.275 1 0.125
v -0.02500001 -1 0.125
v -0.275 -1 0.125

vt 0 0
vt 0 1
vt 1 1
vt 1 0

vn 0 0 -0.25
vn 0 2 0
vn 0 0 0.25
vn 0 -2 0
vn -0.25 0 0
vn 0.25 0 0

usemtl Wood
f 59/53/34 58/52/34 57/51/34
f 60/54/34 59/53/34 57/51/34
f 62/53/35 61/52/35 58/51/35
f 59/54/35 62/53/35 58/51/35
f 64/53/36 63/52/36 61/51/36
f 62/54/36 64/53/36 61/51/36
f 60/53/37 57/52/37 63/51/37
f 64/54/37 60/53/37 63/51/37
f 62/53/38 59/52/38 60/51/38
f 64/54/38 62/53/38 60/51/38
f 58/53/39 61/52/39 63/51/39
f 57/54/39 58/53/39 63/51/39

g post (1)
v -0.02500001 -1 -1.85
v -0.02500001 1 -1.85
v -0.275 1 -1.85
v -0.275 -1 -1.85
v -0.02500001 1 -1.6
v -0.275 1 -1.6
v -0.02500001 -1 -1.6
v -0.275 -1 -1.6

vt 0 0
vt 0 1
vt 1 1
vt 1 0

vn 0 0 -0.25
vn 0 2 0
vn 0 0 0.25
vn 0 -2 0
vn -0.25 0 0
vn 0.25 0 0

usemtl Wood
f 67/57/40 66/56/40 65/55/40
f 68/58/40 67/57/40 65/55/40
f 70/57/41 69/56/41 66/55/41
f 67/58/41 70/57/41 66/55/41
f 72/57/42 71/56/42 69/55/42
f 70/58/42 72/57/42 69/55/42
f 68/57/43 65/56/43 71/55/43
f 72/58/43 68/57/43 71/55/43
f 70/57/44 67/56/44 68/55/44
f 72/58/44 70/57/44 68/55/44
f 66/57/45 69/56/45 71/55/45
f 65/58/45 66/57/45 71/55/45

g post (2)
v -0.02500001 -1 -3.425
v -0.02500001 1 -3.425
v -0.275 1 -3.425
v -0.275 -1 -3.425
v -0.02500001 1 -3.175
v -0.275 1 -3.175
v -0.02500001 -1 -3.175
v -0.275 -1 -3.175

vt 0 0
vt 0 1
vt 1 1
vt 1 0

vn 0 0 -0.25
vn 0 2 0
vn 0 0 0.25
vn 0 -2 0
vn -0.25 0 0
vn 0.25 0 0

usemtl Wood
f 75/61/46 74/60/46 73/59/46
f 76/62/46 75/61/46 73/59/46
f 78/61/47 77/60/47 74/59/47
f 75/62/47 78/61/47 74/59/47
f 80/61/48 79/60/48 77/59/48
f 78/62/48 80/61/48 77/59/48
f 76/61/49 73/60/49 79/59/49
f 80/62/49 76/61/49 79/59/49
f 78/61/50 75/60/50 76/59/50
f 80/62/50 78/61/50 76/59/50
f 74/61/51 77/60/51 79/59/51
f 73/62/51 74/61/51 79/59/51

g post (2)
v -0.02500001 -1 -3.425
v -0.02500001 1 -3.425
v -0.275 1 -3.425
v -0.275 -1 -3.425
v -0.02500001 1 -3.175
v -0.275 1 -3.175
v -0.02500001 -1 -3.175
v -0.275 -1 -3.175

vt 0 0
vt 0 1
vt 1 1
vt 1 0

vn 0 0 -0.25
vn 0 2 0
vn 0 0 0.25
vn 0 -2 0
vn -0.25 0 0
vn 0.25 0 0

usemtl Wood
f 83/65/52 82/64/52 81/63/52
f 84/66/52 83/65/52 81/63/52
f 86/65/53 85/64/53 82/63/53
f 83/66/53 86/65/53 82/63/53
f 88/65/54 87/64/54 85/63/54
f 86/66/54 88/65/54 85/63/54
f 84/65/55 81/64/55 87/63/55
f 88/66/55 84/65/55 87/63/55
f 86/65/56 83/64/56 84/63/56
f 88/66/56 86/65/56 84/63/56
f 82/65/57 85/64/57 87/63/57
f 81/66/57 82/65/57 87/63/57

g post
v -0.02500001 -1 -0.125
v -0.02500001 1 -0.125
v -0.275 1 -0.125
v -0.275 -1 -0.125
v -0.02500001 1 0.125
v -0.275 1 0.125
v -0.02500001 -1 0.125
v -0.275 -1 0.125

vt 0 0
vt 0 1
vt 1 1
vt 1 0

vn 0 0 -0.25
vn 0 2 0
vn 0 0 0.25
vn 0 -2 0
vn -0.25 0 0
vn 0.25 0 0

usemtl Wood
f 91/69/58 90/68/58 89/67/58
f 92/70/58 91/69/58 89/67/58
f 94/69/59 93/68/59 90/67/59
f 91/70/59 94/69/59 90/67/59
f 96/69/60 95/68/60 93/67/60
f 94/70/60 96/69/60 93/67/60
f 92/69/61 89/68/61 95/67/61
f 96/70/61 92/69/61 95/67/61
f 94/69/62 91/68/62 92/67/62
f 96/70/62 94/69/62 92/67/62
f 90/69/63 93/68/63 95/67/63
f 89/70/63 90/69/63 95/67/63

